<?xml version="1.0" encoding="UTF-8" standalone="no"?>
<svg
   xmlns:dc="http://purl.org/dc/elements/1.1/"
   xmlns:cc="http://creativecommons.org/ns#"
   xmlns:rdf="http://www.w3.org/1999/02/22-rdf-syntax-ns#"
   xmlns:svg="http://www.w3.org/2000/svg"
   xmlns="http://www.w3.org/2000/svg"
   xmlns:sodipodi="http://sodipodi.sourceforge.net/DTD/sodipodi-0.dtd"
   xmlns:inkscape="http://www.inkscape.org/namespaces/inkscape"
   fill="#ffffff"
   viewBox="0 0 24 24"
   version="1.1"
   id="svg4487"
   sodipodi:docname="add.svg"
   inkscape:version="0.92.1 r15371">
  <metadata
     id="metadata4493">
    <rdf:RDF>
      <cc:Work
         rdf:about="">
        <dc:format>image/svg+xml</dc:format>
        <dc:type
           rdf:resource="http://purl.org/dc/dcmitype/StillImage" />
      </cc:Work>
    </rdf:RDF>
  </metadata>
  <defs
     id="defs4491" />
  <sodipodi:namedview
     pagecolor="#ffffff"
     bordercolor="#666666"
     borderopacity="1"
     objecttolerance="10"
     gridtolerance="10"
     guidetolerance="10"
     inkscape:pageopacity="0"
     inkscape:pageshadow="2"
     inkscape:window-width="1920"
     inkscape:window-height="1003"
     id="namedview4489"
     showgrid="false"
     inkscape:snap-grids="true"
     inkscape:zoom="16"
     inkscape:cx="25.170501"
     inkscape:cy="14.553732"
     inkscape:window-x="-9"
     inkscape:window-y="-9"
     inkscape:window-maximized="1"
     inkscape:current-layer="svg4487"
     inkscape:snap-object-midpoints="false" />
  <g
     id="g4495"
     transform="translate(1.4204806,0.1054687)"
     style="fill:#ffffff">
    <path
       inkscape:connector-curvature="0"
       id="path4505"
       d="M 14.287109,0.8535156 A 6.2212168,6.2212169 0 0 0 8.0664062,7.0742188 6.2212168,6.2212169 0 0 0 9.041016,10.416016 l -8.0000004,8 c -0.5197185,0.519717 -0.5197185,1.357236 0,1.876953 0.5197184,0.519719 1.3572347,0.519719 1.8769532,0 l 7.9980472,-7.996094 a 6.2212168,6.2212169 0 0 0 3.371093,0.998047 6.2212168,6.2212169 0 0 0 6.220703,-6.2207032 6.2212168,6.2212169 0 0 0 -6.220703,-6.2207032 z m 0,1.7226563 A 4.4856663,4.4856663 0 0 1 18.773438,7.0625 4.4856663,4.4856663 0 0 1 14.287109,11.548828 4.4856663,4.4856663 0 0 1 9.800781,7.0625 4.4856663,4.4856663 0 0 1 14.287109,2.5761719 Z"
       style="opacity:1;fill:#ffffff;fill-opacity:1;stroke:none;stroke-width:3.56279683;stroke-miterlimit:4;stroke-dasharray:none;stroke-opacity:1;paint-order:markers stroke fill" />
    <path
       inkscape:connector-curvature="0"
       id="rect5146"
       d="m 13.558594,16.240234 v 2.5 h -2.5 v 1.695313 h 2.5 v 2.5 h 1.695312 v -2.5 h 2.5 v -1.695313 h -2.5 v -2.5 z"
       style="opacity:1;fill:#ffffff;fill-opacity:1;stroke:none;stroke-width:4.02444077;stroke-miterlimit:4;stroke-dasharray:none;stroke-opacity:1;paint-order:markers stroke fill" />
  </g>
</svg>
