<?xml version="1.0" encoding="UTF-8" standalone="no"?>
<svg
   xmlns:dc="http://purl.org/dc/elements/1.1/"
   xmlns:cc="http://creativecommons.org/ns#"
   xmlns:rdf="http://www.w3.org/1999/02/22-rdf-syntax-ns#"
   xmlns:svg="http://www.w3.org/2000/svg"
   xmlns="http://www.w3.org/2000/svg"
   xmlns:sodipodi="http://sodipodi.sourceforge.net/DTD/sodipodi-0.dtd"
   xmlns:inkscape="http://www.inkscape.org/namespaces/inkscape"
   version="1.1"
   id="Your_Icon"
   x="0px"
   y="0px"
   width="98"
   height="150"
   viewBox="0 0 98 150"
   enable-background="new 0 0 100 100"
   xml:space="preserve"
   sodipodi:docname="no-thumbnail.svg"
   inkscape:version="0.92.1 r15371"><metadata
     id="metadata4506"><rdf:RDF><cc:Work
         rdf:about=""><dc:format>image/svg+xml</dc:format><dc:type
           rdf:resource="http://purl.org/dc/dcmitype/StillImage" /><dc:title></dc:title></cc:Work></rdf:RDF></metadata><defs
     id="defs4504" /><sodipodi:namedview
     pagecolor="#ffffff"
     bordercolor="#666666"
     borderopacity="1"
     objecttolerance="10"
     gridtolerance="10"
     guidetolerance="10"
     inkscape:pageopacity="0"
     inkscape:pageshadow="2"
     inkscape:window-width="1920"
     inkscape:window-height="1003"
     id="namedview4502"
     showgrid="false"
     inkscape:zoom="2.36"
     inkscape:cx="21.964707"
     inkscape:cy="64.109986"
     inkscape:window-x="-9"
     inkscape:window-y="-9"
     inkscape:window-maximized="1"
     inkscape:current-layer="g4499"
     showguides="true"><inkscape:grid
       type="xygrid"
       id="grid5051" /></sodipodi:namedview><g
     id="g4499"
     transform="translate(0,50)"><path
       d="m 85.184437,-28.072632 c -0.144167,0 -1.160671,0.0032 -1.975177,0.04887 v -1.938525 c 0,-2.347407 -1.400951,-4.11733 -3.506449,-4.11733 -0.23865,0 -0.38689,0.02362 -0.627984,0.07168 -0.170232,0.03339 -16.683532,3.411153 -29.647214,13.779818 -2.508678,-2.006943 -5.314652,-3.751617 -7.758171,-5.260896 v -2.04604 c 0,-3.613964 -0.439019,-7.304492 -5.976847,-9.234872 l -7.075616,-2.471211 c -0.737943,-0.266345 -1.459595,-0.400737 -2.158442,-0.400737 -3.321555,0 -5.303249,3.006342 -5.303249,5.913315 0,0.0098 0.0016,0.01792 0.0032,0.02769 -0.828354,-0.203627 -1.305655,-0.301368 -1.334161,-0.306254 -0.239466,-0.04723 -0.791701,-0.07086 -1.030351,-0.07086 -2.103869,-0.0016 -4.003298,1.768293 -4.003298,4.114885 v 1.938526 c -0.814507,-0.0448 -1.830196,-0.04887 -1.975178,-0.04887 -2.502978,0 -4.5408725,2.036266 -4.5408725,4.539243 v 35.733204 c 0,2.211384 2.4435185,4.057056 4.0725315,4.457792 v 3.901486 c 0,2.503792 2.274915,4.690741 4.778709,4.690741 h 25.636583 c 0.722466,0.814506 2.292834,2.443519 4.1157,2.443519 h 5.243791 c 1.821236,0 3.392419,-1.629013 4.114885,-2.443519 h 26.61888 c 2.503792,0 4.426027,-2.186949 4.426027,-4.689927 v -4.209368 c 1.629012,-0.707806 2.443518,-2.300166 2.443518,-4.14991 v -35.733204 c 0,-2.502977 -2.03708,-4.539242 -4.540872,-4.539242 z M 82.854136,21.990993 H 57.649239 c 10.74008,-4.072531 21.48749,-5.084961 25.560021,-5.220169 v 3.787453 c 0,0.570969 0.216659,1.432716 -0.355124,1.432716 z M 15.605242,20.559091 v -3.749986 c 5.701544,0.2134 15.741962,1.109357 25.744099,5.181888 H 17.125924 c -0.570154,0 -1.520682,-0.861747 -1.520682,-1.431902 z M 12.347217,-23.53339 c 0,-0.570155 0.181635,-1.034422 0.752604,-1.034422 0.03665,0 0.876409,0.0032 1.690915,0.05946 V 5.7717283 c 0,2.3702132 1.949927,4.5514607 4.043209,4.9676727 1.080035,0.214216 7.697898,1.58503 15.319233,5.096366 -10.362149,-2.49076 -19.377103,-2.600719 -20.820409,-2.600719 -0.570154,0 -0.985552,-0.464268 -0.985552,-1.035237 z m 6.565734,-7.036519 c 0.0619,0.01222 2.393835,0.478114 5.65186,1.584215 v 22.7654492 c 0,0.5636383 0.499292,1.0857369 0.984737,1.3716284 0.487075,0.2867062 1.188365,0.2956662 1.680327,0.023619 l 5.606246,-3.0617295 6.041193,7.18720316 c 0.308698,0.36897183 0.771338,0.57096938 1.233977,0.57096938 0.181635,0 0.348608,-0.031768 0.526171,-0.0961118 0.630428,-0.22887666 1.031979,-0.82753834 1.031979,-1.49787744 V -21.418932 c 1.629013,1.267372 4.072532,2.688686 6.51605,4.279417 v 0.237835 36.599839 C 35.967898,10.638406 21.704265,7.6336923 20.018236,7.2997447 19.654152,7.2272533 18.863267,6.5528421 18.863267,5.7709161 V -29.963102 c 0,-0.390963 -0.03829,-0.586444 0.04969,-0.606807 z m 7.551288,-5.886437 c 0.329061,0 0.694773,0.07086 1.099583,0.217474 l 7.043035,2.477728 c 3.328074,1.159857 3.804559,2.784796 3.804559,6.22527 v 21.4288457 l -3.985379,-4.8308367 c -0.310326,-0.372229 -0.731427,-0.570968 -1.191622,-0.570968 -0.260642,0 -0.677669,0.06516 -0.919578,0.197924 l -4.492001,2.3930194 V -29.89061 c 0,-1.383847 0.166973,-4.623138 -3.202639,-4.623138 -0.120546,0 -0.159643,0.01467 -0.276118,0.04072 0.208513,-0.952159 0.908989,-1.983324 2.12016,-1.983324 z M 79.951235,5.7709161 c 0,0.8112482 -0.38689,1.4563372 -0.749345,1.5288286 C 77.517491,7.6336923 63.66111,10.640034 51.443516,19.698973 v -36.600653 -0.237835 c 12.217594,-10.114539 28.278843,-13.398628 28.480841,-13.43691 0.05049,0.02688 0.02688,0.221546 0.02688,0.613323 z m 5.545973,7.4641349 c -1.444119,0 -10.475364,0.108331 -20.836699,2.59909 7.618892,-3.511337 13.90688,-4.88215 14.986915,-5.095551 C 81.74152,10.324006 83.20926,8.1419442 83.20926,5.7709161 V -24.508353 c 0.814506,-0.05539 2.06233,-0.05864 2.098982,-0.05864 0.57097,0 1.159043,0.463452 1.159043,1.034422 v 35.733203 c 0,0.570154 -0.399922,1.034423 -0.970077,1.034422 z"
       id="path4497"
       inkscape:connector-curvature="0"
       style="fill:#666666;stroke-width:0.81450623" /><text
       xml:space="preserve"
       style="font-style:normal;font-weight:normal;font-size:36.09999847px;line-height:0.5;font-family:sans-serif;letter-spacing:0px;word-spacing:0px;fill:#666666;fill-opacity:1;stroke:none;stroke-width:0.90249997"
       x="49.419518"
       y="47.5536"
       id="text5055"><tspan
         sodipodi:role="line"
         x="49.419518"
         y="47.5536"
         style="font-style:normal;font-variant:normal;font-weight:bold;font-stretch:normal;font-size:12.03333282px;font-family:serif;-inkscape-font-specification:'serif Bold';text-align:center;text-anchor:middle;fill:#666666;stroke-width:0.90249997"
         id="tspan5061">Sorry,</tspan><tspan
         sodipodi:role="line"
         x="49.419518"
         y="66.850891"
         style="font-style:normal;font-variant:normal;font-weight:bold;font-stretch:normal;font-size:12.03333282px;font-family:serif;-inkscape-font-specification:'serif Bold';text-align:center;text-anchor:middle;fill:#666666;stroke-width:0.90249997"
         id="tspan5063" /></text>
<text
       id="text5083"
       y="61.993599"
       x="49.419518"
       style="font-style:normal;font-weight:normal;font-size:36.09999847px;line-height:0.5;font-family:sans-serif;letter-spacing:0px;word-spacing:0px;fill:#666666;fill-opacity:1;stroke:none;stroke-width:0.90249997"
       xml:space="preserve"><tspan
         style="font-style:normal;font-variant:normal;font-weight:bold;font-stretch:normal;font-size:12.03333282px;font-family:serif;-inkscape-font-specification:'serif Bold';text-align:center;text-anchor:middle;fill:#666666;stroke-width:0.90249997"
         y="61.993599"
         x="49.419518"
         sodipodi:role="line"
         id="tspan5087">no thumbnail</tspan><tspan
         style="font-style:normal;font-variant:normal;font-weight:bold;font-stretch:normal;font-size:12.03333282px;font-family:serif;-inkscape-font-specification:'serif Bold';text-align:center;text-anchor:middle;fill:#666666;stroke-width:0.90249997"
         y="81.290894"
         x="49.419518"
         sodipodi:role="line"
         id="tspan5089">:(</tspan></text>
</g></svg>